<!-- Generator: Adobe Illustrator 17.0.0, SVG Export Plug-In  -->
<svg version="1.1"
	 xmlns="http://www.w3.org/2000/svg" xmlns:xlink="http://www.w3.org/1999/xlink" xmlns:a="http://ns.adobe.com/AdobeSVGViewerExtensions/3.0/"
	 x="0px" y="0px" width="139.852px" height="104.97px" viewBox="0 0 139.852 104.97" enable-background="new 0 0 139.852 104.97"
	 xml:space="preserve">
<defs>
</defs>
<g>
	<path fill="#148A98" d="M0,0c46.653,0,93.044,0,139.852,0c0,34.92,0,69.756,0,104.97c-46.519,0-93.028,0-139.852,0
		C0,70.007,0,35.146,0,0z M16.284,9.319C33.238,26.511,49.295,42.9,65.5,59.14c3.261,3.268,6.69,2.783,10.447-0.978
		c15.41-15.422,30.777-30.888,46.138-46.36c0.614-0.619,1.004-1.461,1.69-2.484C88.012,9.319,52.786,9.319,16.284,9.319z
		 M15.987,95.612c36.606,0,71.61,0,107.998,0c-12.862-12.028-24.835-23.226-36.932-34.539c-16.91,13.679-16.91,13.679-33.643-0.266
		C41.14,72.218,28.999,83.51,15.987,95.612z M9.64,86.28c11.586-10.867,23.552-22.091,35.298-33.108
		C32.656,41.196,20.905,29.739,9.64,18.755C9.64,40.969,9.64,64.181,9.64,86.28z M130.196,20.735
		c-10.597,10.273-22.28,21.599-34.633,33.575c11.376,10.711,23.082,21.733,34.633,32.609
		C130.196,64.457,130.196,41.409,130.196,20.735z"/>
</g>
</svg>
