<svg xmlns="http://www.w3.org/2000/svg" width="299.779" height="321.604"><g fill="#fff"><path d="M0 95.9c.03 10.96 1.14 20.15 3.15 29.23 2.97 13.44 7.73 26.26 13.67 38.65 7.62 15.87 16.98 30.67 27.37 44.84 8.93 12.2 18.58 23.8 28.74 35 11.36 12.5 23.36 24.34 36.38 35.13 11.8 9.8 24.3 18.6 37.86 25.82 14.76 7.87 30.25 13.57 46.88 15.92 8.97 1.26 17.95 1.46 26.94.5 9.64-1.04 18.96-3.4 27.9-7.2 9.46-4 18.14-9.28 25.86-16.1 4.2-3.7 8.34-7.43 12.44-11.22 2.63-2.43 5.37-4.8 7.66-7.53 4.84-5.8 6.2-12.4 3.68-19.64-1.5-4.3-3.97-8.08-6.82-11.6-3.97-4.9-8.5-9.24-13.3-13.3-6.8-5.75-13.54-11.57-20.5-17.1-5.73-4.53-12.03-8.17-19.05-10.4-8.6-2.73-16.98-2.3-24.8 2.44-3.12 1.9-5.97 4.3-8.78 6.68-4.95 4.2-9.97 8.3-14.2 13.3-.92 1.1-2.03 2.05-3.1 3-5.52 4.85-11.9 6.94-19.22 5.95-5.7-.78-10.85-3-15.78-5.82-8.3-4.74-15.55-10.83-22.45-17.36-8.26-7.82-15.87-16.24-23.14-24.97-7.68-9.23-14.9-18.8-20.8-29.3-3.3-5.9-6.13-12-7.68-18.64-1.14-4.9-1.5-9.82-.2-14.75 1.56-5.9 5.26-10.25 10.07-13.73 3.98-2.9 8.1-5.6 11.7-9 3.7-3.47 7.7-6.63 11.14-10.33 6.06-6.53 8.36-14.44 7.43-23.3-.66-6.37-2.84-12.3-5.55-18.06-3.08-6.53-7-12.58-10.87-18.65-4.36-6.84-8.54-13.8-13.72-20.04-3.74-4.5-7.8-8.68-12.97-11.57C71.83.47 67.46-.55 62.73.27c-4.2.73-7.88 2.58-11.1 5.24-6.54 5.4-13.06 10.83-19.4 16.46C21.6 31.43 13.7 42.88 8.15 55.94 2.52 69.24.02 83.14 0 95.9zM0 95.9c.03-12.75 2.52-26.66 8.15-39.96 5.54-13.07 13.46-24.5 24.08-33.96 6.34-5.63 12.86-11.06 19.4-16.46 3.22-2.66 6.9-4.5 11.1-5.24 4.72-.82 9.1.2 13.23 2.5 5.18 2.9 9.23 7.07 12.97 11.58 5.18 6.26 9.36 13.2 13.72 20.04 3.87 6.07 7.8 12.1 10.87 18.64 2.72 5.76 4.9 11.7 5.56 18.08.92 8.84-1.38 16.75-7.44 23.27-3.44 3.7-7.45 6.86-11.14 10.33-3.6 3.4-7.72 6.1-11.7 9-4.82 3.48-8.52 7.83-10.07 13.73-1.3 4.92-.95 9.84.2 14.73 1.54 6.62 4.36 12.74 7.67 18.64 5.9 10.5 13.12 20.06 20.8 29.3 7.28 8.72 14.9 17.14 23.15 24.96 6.9 6.53 14.15 12.62 22.45 17.36 4.93 2.82 10.1 5.04 15.8 5.8 7.3 1 13.68-1.1 19.2-5.93 1.08-.96 2.18-1.92 3.1-3.02 4.23-4.97 9.25-9.08 14.2-13.27 2.8-2.38 5.65-4.8 8.78-6.68 7.8-4.73 16.18-5.17 24.8-2.44 7.02 2.24 13.32 5.88 19.03 10.4 6.98 5.54 13.72 11.36 20.5 17.1 4.8 4.06 9.35 8.4 13.32 13.3 2.85 3.53 5.3 7.3 6.82 11.6 2.52 7.26 1.16 13.86-3.68 19.65-2.3 2.74-5.03 5.1-7.66 7.53-4.1 3.8-8.25 7.53-12.44 11.23-7.7 6.82-16.4 12.1-25.86 16.1-8.94 3.8-18.26 6.17-27.9 7.2-9 .97-17.97.76-26.93-.5-16.64-2.36-32.13-8.06-46.9-15.92-13.55-7.23-26.04-16.03-37.85-25.82-13.02-10.8-25.02-22.62-36.38-35.13-10.16-11.2-19.8-22.8-28.75-35-10.4-14.18-19.76-28.98-27.38-44.85-5.94-12.4-10.7-25.2-13.67-38.64-2-9.1-3.12-18.28-3.15-29.23z"/></g></svg>