<svg xmlns="http://www.w3.org/2000/svg" xmlns:xlink="http://www.w3.org/1999/xlink" xmlns:a="http://ns.adobe.com/AdobeSVGViewerExtensions/3.0/" version="1.1" x="0px" y="0px" width="299.779px" height="321.604px" viewBox="0 0 299.779 321.604" enable-background="new 0 0 299.779 321.604" xml:space="preserve">
<defs>
</defs>
<g>
	<path fill="#FFFFFF" d="M0,95.913c0.034,10.945,1.141,20.134,3.15,29.219c2.972,13.442,7.729,26.254,13.674,38.645   c7.613,15.868,16.974,30.673,27.364,44.845c8.941,12.195,18.592,23.807,28.755,35.001c11.356,12.509,23.36,24.34,36.375,35.131   c11.813,9.793,24.296,18.592,37.858,25.818c14.763,7.865,30.251,13.566,46.889,15.92c8.963,1.268,17.941,1.471,26.933,0.506   c9.643-1.035,18.961-3.406,27.901-7.193c9.463-4.009,18.145-9.287,25.859-16.099c4.188-3.698,8.341-7.438,12.444-11.23   c2.629-2.43,5.371-4.795,7.656-7.529c4.838-5.789,6.199-12.397,3.678-19.64c-1.504-4.32-3.968-8.085-6.82-11.615   c-3.963-4.904-8.504-9.237-13.307-13.296c-6.795-5.743-13.53-11.565-20.498-17.091c-5.717-4.534-12.017-8.173-19.038-10.4   c-8.612-2.731-16.983-2.29-24.794,2.439c-3.131,1.895-5.981,4.3-8.785,6.678c-4.941,4.192-9.966,8.307-14.184,13.285   c-0.931,1.099-2.035,2.063-3.121,3.018c-5.51,4.843-11.877,6.938-19.205,5.943c-5.695-0.774-10.852-2.996-15.788-5.816   c-8.293-4.738-15.546-10.832-22.449-17.362c-8.258-7.812-15.864-16.234-23.136-24.963c-7.689-9.229-14.922-18.786-20.812-29.291   c-3.309-5.903-6.13-12.018-7.679-18.647c-1.143-4.894-1.485-9.81-0.19-14.737c1.549-5.893,5.246-10.249,10.056-13.732   c3.99-2.889,8.102-5.605,11.711-8.997c3.693-3.469,7.699-6.637,11.14-10.335c6.064-6.518,8.359-14.429,7.437-23.274   c-0.666-6.389-2.839-12.318-5.554-18.077c-3.079-6.532-6.999-12.575-10.872-18.646c-4.355-6.828-8.534-13.777-13.721-20.036   C85.19,9.848,81.138,5.681,75.96,2.785c-4.127-2.307-8.506-3.324-13.233-2.505c-4.183,0.725-7.876,2.584-11.096,5.24   c-6.542,5.397-13.065,10.827-19.401,16.462C21.605,31.432,13.688,42.866,8.148,55.944C2.517,69.237,0.025,83.153,0,95.913z"/>
	<path fill="#FFFFFF" d="M0,95.913c0.025-12.761,2.517-26.677,8.148-39.969c5.54-13.078,13.458-24.512,24.081-33.961   c6.336-5.635,12.859-11.065,19.401-16.462c3.22-2.657,6.913-4.515,11.096-5.24c4.727-0.82,9.107,0.197,13.233,2.505   c5.178,2.895,9.23,7.063,12.969,11.574c5.186,6.259,9.365,13.208,13.721,20.036c3.872,6.07,7.792,12.114,10.872,18.646   c2.715,5.759,4.888,11.687,5.554,18.077c0.922,8.845-1.373,16.756-7.437,23.274c-3.441,3.698-7.447,6.866-11.14,10.335   c-3.609,3.391-7.721,6.107-11.711,8.997c-4.81,3.483-8.507,7.839-10.056,13.732c-1.295,4.927-0.953,9.842,0.19,14.737   c1.549,6.629,4.369,12.744,7.679,18.647c5.89,10.506,13.123,20.062,20.812,29.291c7.272,8.728,14.878,17.151,23.136,24.963   c6.903,6.53,14.156,12.624,22.449,17.362c4.935,2.819,10.092,5.042,15.788,5.816c7.328,0.995,13.695-1.1,19.205-5.943   c1.087-0.955,2.19-1.919,3.121-3.018c4.217-4.978,9.242-9.093,14.184-13.285c2.804-2.379,5.654-4.783,8.785-6.678   c7.812-4.729,16.182-5.17,24.794-2.439c7.021,2.227,13.321,5.866,19.038,10.4c6.968,5.526,13.703,11.348,20.498,17.091   c4.802,4.059,9.344,8.391,13.307,13.296c2.852,3.53,5.316,7.296,6.82,11.615c2.522,7.243,1.16,13.851-3.678,19.64   c-2.285,2.734-5.026,5.099-7.656,7.529c-4.103,3.792-8.256,7.532-12.444,11.23c-7.714,6.812-16.396,12.091-25.859,16.099   c-8.94,3.787-18.258,6.158-27.901,7.193c-8.992,0.965-17.97,0.762-26.933-0.506c-16.638-2.354-32.126-8.055-46.889-15.92   c-13.562-7.226-26.045-16.025-37.858-25.818c-13.016-10.791-25.019-22.622-36.375-35.131   c-10.163-11.194-19.814-22.806-28.755-35.001c-10.39-14.173-19.751-28.977-27.364-44.845c-5.945-12.39-10.702-25.202-13.674-38.645   C1.141,116.047,0.034,106.858,0,95.913z"/>
</g>
<head xmlns=""/></svg>
