<?xml version="1.0" encoding="UTF-8"?>
<svg width="13px" height="13px" viewBox="0 0 13 13" version="1.1" xmlns="http://www.w3.org/2000/svg" xmlns:xlink="http://www.w3.org/1999/xlink">
    <!-- Generator: Sketch 50.2 (55047) - http://www.bohemiancoding.com/sketch -->
    <title>search icon</title>
    <desc>Created with Sketch.</desc>
    <defs></defs>
    <g id="Page-1" stroke="none" stroke-width="1" fill="none" fill-rule="evenodd">
        <g id="Artboard-Copy-19" transform="translate(-503.000000, -368.000000)" fill="#FFFFFF">
            <g id="Group-Copy" transform="translate(84.000000, 354.000000)">
                <g id="Search-box/corner-rectangle">
                    <path d="M428,19.5 C428,21.4296875 426.429688,23 424.5,23 C422.570312,23 421,21.4296875 421,19.5 C421,17.5703125 422.570312,16 424.5,16 C426.429688,16 428,17.5703125 428,19.5 L428,19.5 Z M431.710938,25.296875 L429.03125,22.6171875 C429.664062,21.703125 430,20.609375 430,19.5 C430,16.4609375 427.539062,14 424.5,14 C421.460938,14 419,16.4609375 419,19.5 C419,22.5390625 421.460938,25 424.5,25 C425.609375,25 426.703125,24.6640625 427.617188,24.03125 L430.296875,26.703125 C430.476562,26.890625 430.734375,27 431,27 C431.546875,27 432,26.546875 432,26 C432,25.734375 431.890625,25.4765625 431.710938,25.296875 Z" id="search-icon"></path>
                </g>
            </g>
        </g>
    </g>
</svg>